<mxfile host="app.diagrams.net" modified="2024-04-03T03:39:46.689Z" agent="Mozilla/5.0 (Windows NT 10.0; Win64; x64; rv:124.0) Gecko/20100101 Firefox/124.0" etag="OvoBgRroQ3W3qllMNMhx" version="24.2.1" type="device">
  <diagram name="Page-1" id="Z18FmB7hKVcyfcEsuAay">
    <mxGraphModel dx="1413" dy="674" grid="1" gridSize="10" guides="1" tooltips="1" connect="1" arrows="1" fold="1" page="1" pageScale="1" pageWidth="850" pageHeight="1100" math="0" shadow="0">
      <root>
        <mxCell id="0" />
        <mxCell id="1" parent="0" />
        <mxCell id="FMDEGctsnKs-etovY0dm-1" value="" style="rounded=0;whiteSpace=wrap;html=1;" vertex="1" parent="1">
          <mxGeometry x="150" y="70" width="730" height="470" as="geometry" />
        </mxCell>
        <mxCell id="FMDEGctsnKs-etovY0dm-24" value="&lt;font style=&quot;font-size: 14px;&quot;&gt;&lt;font style=&quot;font-size: 36px;&quot;&gt;You Won&lt;/font&gt;&lt;br&gt;&lt;/font&gt;" style="text;html=1;align=center;verticalAlign=middle;whiteSpace=wrap;rounded=0;" vertex="1" parent="1">
          <mxGeometry x="415" y="110" width="190" height="30" as="geometry" />
        </mxCell>
        <mxCell id="FMDEGctsnKs-etovY0dm-26" value="&lt;font style=&quot;font-size: 24px;&quot;&gt;&lt;font&gt;USER_NAME&lt;/font&gt;&lt;br&gt;&lt;/font&gt;" style="text;html=1;align=center;verticalAlign=middle;whiteSpace=wrap;rounded=0;" vertex="1" parent="1">
          <mxGeometry x="570" y="200" width="190" height="30" as="geometry" />
        </mxCell>
        <mxCell id="FMDEGctsnKs-etovY0dm-28" value="&lt;font style=&quot;font-size: 24px;&quot;&gt;&lt;font&gt;Money:&lt;br&gt;&lt;/font&gt;&lt;/font&gt;" style="text;html=1;align=center;verticalAlign=middle;whiteSpace=wrap;rounded=0;" vertex="1" parent="1">
          <mxGeometry x="277.5" y="350" width="215" height="30" as="geometry" />
        </mxCell>
        <mxCell id="FMDEGctsnKs-etovY0dm-30" value="&lt;font style=&quot;font-size: 24px;&quot;&gt;Restart&lt;/font&gt;" style="rounded=1;whiteSpace=wrap;html=1;" vertex="1" parent="1">
          <mxGeometry x="305" y="450" width="185" height="60" as="geometry" />
        </mxCell>
        <mxCell id="FMDEGctsnKs-etovY0dm-31" value="&lt;font style=&quot;font-size: 24px;&quot;&gt;Quit&lt;/font&gt;" style="rounded=1;whiteSpace=wrap;html=1;" vertex="1" parent="1">
          <mxGeometry x="560" y="450" width="185" height="60" as="geometry" />
        </mxCell>
        <mxCell id="FMDEGctsnKs-etovY0dm-32" value="&lt;div align=&quot;left&quot;&gt;&lt;font style=&quot;font-size: 24px;&quot;&gt;&lt;font&gt;Points Earned:&lt;/font&gt;&lt;/font&gt;&lt;/div&gt;" style="text;html=1;align=center;verticalAlign=middle;whiteSpace=wrap;rounded=0;" vertex="1" parent="1">
          <mxGeometry x="277.5" y="300" width="215" height="30" as="geometry" />
        </mxCell>
        <mxCell id="FMDEGctsnKs-etovY0dm-33" value="&lt;div align=&quot;left&quot;&gt;&lt;font style=&quot;font-size: 24px;&quot;&gt;&lt;font&gt;User:&lt;br&gt;&lt;/font&gt;&lt;/font&gt;&lt;/div&gt;" style="text;html=1;align=center;verticalAlign=middle;whiteSpace=wrap;rounded=0;" vertex="1" parent="1">
          <mxGeometry x="277.5" y="200" width="215" height="30" as="geometry" />
        </mxCell>
        <mxCell id="FMDEGctsnKs-etovY0dm-34" value="&lt;font style=&quot;font-size: 24px;&quot;&gt;&lt;font&gt;5000&lt;/font&gt;&lt;/font&gt;" style="text;html=1;align=center;verticalAlign=middle;whiteSpace=wrap;rounded=0;" vertex="1" parent="1">
          <mxGeometry x="570" y="300" width="190" height="30" as="geometry" />
        </mxCell>
        <mxCell id="FMDEGctsnKs-etovY0dm-36" value="&lt;font style=&quot;font-size: 24px;&quot;&gt;&lt;font&gt;Rounds Completed:&lt;br&gt;&lt;/font&gt;&lt;/font&gt;" style="text;html=1;align=center;verticalAlign=middle;whiteSpace=wrap;rounded=0;" vertex="1" parent="1">
          <mxGeometry x="277.5" y="250" width="215" height="30" as="geometry" />
        </mxCell>
        <mxCell id="FMDEGctsnKs-etovY0dm-37" value="&lt;font style=&quot;font-size: 24px;&quot;&gt;&lt;font&gt;7&lt;/font&gt;&lt;/font&gt;" style="text;html=1;align=center;verticalAlign=middle;whiteSpace=wrap;rounded=0;" vertex="1" parent="1">
          <mxGeometry x="570" y="250" width="190" height="30" as="geometry" />
        </mxCell>
        <mxCell id="FMDEGctsnKs-etovY0dm-38" value="&lt;font style=&quot;font-size: 24px;&quot;&gt;&lt;font&gt;$999&lt;/font&gt;&lt;/font&gt;" style="text;html=1;align=center;verticalAlign=middle;whiteSpace=wrap;rounded=0;" vertex="1" parent="1">
          <mxGeometry x="570" y="350" width="190" height="30" as="geometry" />
        </mxCell>
      </root>
    </mxGraphModel>
  </diagram>
</mxfile>
